<svg xmlns="http://www.w3.org/2000/svg" viewBox="0 0 99920 10000" shape-rendering="geometricPrecision" text-rendering="geometricPrecision" image-rendering="optimizeQuality" fill-rule="evenodd" clip-rule="evenodd"><defs><style>.fil0,.fil1{fill:#000}.fil0{fill-rule:nonzero}</style></defs><g id="Слой_x0020_1"><g id="_2230055615328"><path class="fil0" d="M14613 9575l-3448-6322v5613c0 139 32 245 96 316 63 70 175 128 339 173v220H8861v-220c164-45 276-103 340-173 63-71 96-177 96-316V1127c0-135-33-238-96-309-64-70-176-130-340-173V425h3598v220c-215 52-323 176-323 368 0 89 33 192 96 308l2547 4710 2582-4630c115-205 171-354 171-448 0-183-114-285-342-308V425h3540v220c-164 43-276 103-339 173-64 71-96 174-96 309v7739c0 139 32 245 96 316 63 70 175 128 339 173v220h-2921v-220c159-41 271-96 337-171 65-73 98-179 98-318V3253l-3631 6322zm14648-2346h-4223l-637 1292c-87 180-131 320-131 423 0 199 154 336 461 411v220h-3097v-220c182-36 323-98 419-187s206-263 328-521l3443-7024c110-224 164-402 164-537 0-206-131-352-398-441V425h3320v220c-272 75-405 208-405 395 0 128 42 277 128 441l3563 7044c153 300 284 503 398 613 115 110 267 181 459 217v220h-3455v-220c302-50 452-187 452-416 0-96-47-235-138-418l-651-1292zm-585-1248l-1503-3231-1531 3231h3034zm7671-137v3029c0 135 33 238 98 311 66 75 178 130 338 171v220h-2922v-220c164-45 276-103 339-173 64-71 96-174 96-309V1134c0-139-32-245-96-316-63-70-175-130-339-173V425h5862c714 0 1280 41 1700 121 419 80 784 222 1095 423 361 234 630 549 810 947 169 384 253 795 253 1234 0 1496-850 2369-2547 2625l1819 2517c318 441 552 725 702 853 150 126 330 197 546 210v220h-3388v-220c232-36 349-116 349-240 0-80-108-274-323-583l-1908-2688h-2484zm0-1509h3158c466 0 796-14 988-41 192-26 370-83 529-167 349-183 522-515 522-993 0-477-173-809-522-992-164-89-339-146-524-171s-518-37-993-37h-3158v2401zm11359 1221v2510h6009c138 0 244-32 316-94 73-62 134-171 178-331h225v2359h-225c-44-160-105-270-178-332-72-61-178-93-316-93h-8495v-220c164-45 276-103 339-173 63-71 96-177 96-316V1134c0-139-33-245-96-316-63-70-175-130-339-173V425h8327c138 0 243-32 316-93 72-65 133-174 178-332h224v2359h-224c-45-157-106-267-178-331-73-62-178-94-314-94h-5843v2168h3792c136 0 241-32 314-94s133-172 178-332h225v2305h-225c-45-156-105-265-178-329s-178-96-314-96h-3792zm10490-2246v5556c0 139 33 245 96 316 63 70 176 128 339 173v220h-2739v-220c164-45 277-103 340-173 63-71 96-177 96-316V1127c0-135-33-238-96-309-63-70-176-130-340-173V425h3177v220c-196 48-292 151-292 308 0 108 63 224 189 355l5186 5242V1127c0-135-33-238-96-309-64-70-176-130-340-173V425h2739v220c-164 43-276 103-339 173-63 71-96 174-96 309v7739c0 139 33 245 96 316 63 70 175 128 339 173v220h-2945v-220c192-41 288-137 288-288 0-89-112-244-335-468l-5267-5289zm18213 2973h-2315c-140 0-248 32-318 93-71 62-129 172-176 332h-225V4582h225c47 164 103 276 176 336 70 59 175 89 318 89h4436v219c-161 44-274 103-339 174-63 71-96 176-96 316v1874c0 140 30 245 93 316 64 71 176 128 342 174v164c-1777 997-3502 1495-5169 1495-1514 0-2748-352-3703-1054-1201-884-1803-2114-1803-3690 0-1465 534-2633 1604-3500 1016-823 2364-1234 4045-1234 534 0 1039 48 1512 144s1012 256 1613 482c312 121 534 181 665 181 96 0 209-51 337-154l197 101-1103 2190-199-100c-4-147-25-252-61-316-37-66-119-144-248-238-278-205-688-379-1226-523-541-144-1052-217-1531-217-979 0-1791 267-2435 804-728 611-1091 1413-1091 2412 0 968 356 1747 1065 2344 651 546 1508 818 2571 818 519 0 1030-59 1533-176 503-116 939-274 1306-478V6283zm8866-6022c1634 0 2928 432 3886 1294 1011 903 1517 2071 1517 3502 0 876-244 1694-728 2456-948 1483-2503 2226-4661 2226-1623 0-2910-432-3868-1294-512-461-901-1012-1165-1657-235-567-352-1166-352-1793 0-916 242-1753 721-2514 921-1454 2470-2193 4650-2220zm7 1550c-897 0-1641 260-2238 779-707 613-1061 1415-1061 2410s354 1797 1061 2410c597 519 1346 779 2252 779 903 0 1650-260 2243-779 353-309 625-686 812-1134 166-398 248-810 248-1235 0-1040-353-1856-1060-2451-602-512-1354-770-2257-779z"/><circle class="fil1" cx="1307" cy="5000" r="1307"/><circle class="fil1" cx="98613" cy="5000" r="1307"/></g></g></svg>