<?xml version="1.0" encoding="UTF-8"?>
<!DOCTYPE svg PUBLIC "-//W3C//DTD SVG 1.1//EN" "http://www.w3.org/Graphics/SVG/1.1/DTD/svg11.dtd">
<!-- Creator: CorelDRAW X8 -->
<svg xmlns="http://www.w3.org/2000/svg" xml:space="preserve" version="1.1" style="shape-rendering:geometricPrecision; text-rendering:geometricPrecision; image-rendering:optimizeQuality; fill-rule:evenodd; clip-rule:evenodd"
viewBox="0 0 99920 10000"
 xmlns:xlink="http://www.w3.org/1999/xlink">
 <defs>
  <style type="text/css">
   <![CDATA[
    .fil1 {fill:black}
    .fil0 {fill:black;fill-rule:nonzero}
   ]]>
  </style>
 </defs>
 <g id="Слой_x0020_1">
  <metadata id="CorelCorpID_0Corel-Layer"/>
  <g id="_2230055615328">
   <path class="fil0" d="M14613 9575l-3448 -6322 0 5613c0,139 32,245 96,316 63,70 175,128 339,173l0 220 -2739 0 0 -220c164,-45 276,-103 340,-173 63,-71 96,-177 96,-316l0 -7739c0,-135 -33,-238 -96,-309 -64,-70 -176,-130 -340,-173l0 -220 3598 0 0 220c-215,52 -323,176 -323,368 0,89 33,192 96,308l2547 4710 2582 -4630c115,-205 171,-354 171,-448 0,-183 -114,-285 -342,-308l0 -220 3540 0 0 220c-164,43 -276,103 -339,173 -64,71 -96,174 -96,309l0 7739c0,139 32,245 96,316 63,70 175,128 339,173l0 220 -2921 0 0 -220c159,-41 271,-96 337,-171 65,-73 98,-179 98,-318l0 -5613 -3631 6322zm14648 -2346l-4223 0 -637 1292c-87,180 -131,320 -131,423 0,199 154,336 461,411l0 220 -3097 0 0 -220c182,-36 323,-98 419,-187 96,-89 206,-263 328,-521l3443 -7024c110,-224 164,-402 164,-537 0,-206 -131,-352 -398,-441l0 -220 3320 0 0 220c-272,75 -405,208 -405,395 0,128 42,277 128,441l3563 7044c153,300 284,503 398,613 115,110 267,181 459,217l0 220 -3455 0 0 -220c302,-50 452,-187 452,-416 0,-96 -47,-235 -138,-418l-651 -1292zm-585 -1248l-1503 -3231 -1531 3231 3034 0zm7671 -137l0 3029c0,135 33,238 98,311 66,75 178,130 338,171l0 220 -2922 0 0 -220c164,-45 276,-103 339,-173 64,-71 96,-174 96,-309l0 -7739c0,-139 -32,-245 -96,-316 -63,-70 -175,-130 -339,-173l0 -220 5862 0c714,0 1280,41 1700,121 419,80 784,222 1095,423 361,234 630,549 810,947 169,384 253,795 253,1234 0,1496 -850,2369 -2547,2625l1819 2517c318,441 552,725 702,853 150,126 330,197 546,210l0 220 -3388 0 0 -220c232,-36 349,-116 349,-240 0,-80 -108,-274 -323,-583l-1908 -2688 -2484 0zm0 -1509l3158 0c466,0 796,-14 988,-41 192,-26 370,-83 529,-167 349,-183 522,-515 522,-993 0,-477 -173,-809 -522,-992 -164,-89 -339,-146 -524,-171 -185,-25 -518,-37 -993,-37l-3158 0 0 2401zm11359 1221l0 2510 6009 0c138,0 244,-32 316,-94 73,-62 134,-171 178,-331l225 0 0 2359 -225 0c-44,-160 -105,-270 -178,-332 -72,-61 -178,-93 -316,-93l-8495 0 0 -220c164,-45 276,-103 339,-173 63,-71 96,-177 96,-316l0 -7732c0,-139 -33,-245 -96,-316 -63,-70 -175,-130 -339,-173l0 -220 8327 0c138,0 243,-32 316,-93 72,-65 133,-174 178,-332l224 0 0 2359 -224 0c-45,-157 -106,-267 -178,-331 -73,-62 -178,-94 -314,-94l-5843 0 0 2168 3792 0c136,0 241,-32 314,-94 73,-62 133,-172 178,-332l225 0 0 2305 -225 0c-45,-156 -105,-265 -178,-329 -73,-64 -178,-96 -314,-96l-3792 0zm10490 -2246l0 5556c0,139 33,245 96,316 63,70 176,128 339,173l0 220 -2739 0 0 -220c164,-45 277,-103 340,-173 63,-71 96,-177 96,-316l0 -7739c0,-135 -33,-238 -96,-309 -63,-70 -176,-130 -340,-173l0 -220 3177 0 0 220c-196,48 -292,151 -292,308 0,108 63,224 189,355l5186 5242 0 -5423c0,-135 -33,-238 -96,-309 -64,-70 -176,-130 -340,-173l0 -220 2739 0 0 220c-164,43 -276,103 -339,173 -63,71 -96,174 -96,309l0 7739c0,139 33,245 96,316 63,70 175,128 339,173l0 220 -2945 0 0 -220c192,-41 288,-137 288,-288 0,-89 -112,-244 -335,-468l-5267 -5289zm18213 2973l-2315 0c-140,0 -248,32 -318,93 -71,62 -129,172 -176,332l-225 0 0 -2126 225 0c47,164 103,276 176,336 70,59 175,89 318,89l4436 0 0 219c-161,44 -274,103 -339,174 -63,71 -96,176 -96,316l0 1874c0,140 30,245 93,316 64,71 176,128 342,174l0 164c-1777,997 -3502,1495 -5169,1495 -1514,0 -2748,-352 -3703,-1054 -1201,-884 -1803,-2114 -1803,-3690 0,-1465 534,-2633 1604,-3500 1016,-823 2364,-1234 4045,-1234 534,0 1039,48 1512,144 473,96 1012,256 1613,482 312,121 534,181 665,181 96,0 209,-51 337,-154l197 101 -1103 2190 -199 -100c-4,-147 -25,-252 -61,-316 -37,-66 -119,-144 -248,-238 -278,-205 -688,-379 -1226,-523 -541,-144 -1052,-217 -1531,-217 -979,0 -1791,267 -2435,804 -728,611 -1091,1413 -1091,2412 0,968 356,1747 1065,2344 651,546 1508,818 2571,818 519,0 1030,-59 1533,-176 503,-116 939,-274 1306,-478l0 -1252zm8866 -6022c1634,0 2928,432 3886,1294 1011,903 1517,2071 1517,3502 0,876 -244,1694 -728,2456 -948,1483 -2503,2226 -4661,2226 -1623,0 -2910,-432 -3868,-1294 -512,-461 -901,-1012 -1165,-1657 -235,-567 -352,-1166 -352,-1793 0,-916 242,-1753 721,-2514 921,-1454 2470,-2193 4650,-2220zm7 1550c-897,0 -1641,260 -2238,779 -707,613 -1061,1415 -1061,2410 0,995 354,1797 1061,2410 597,519 1346,779 2252,779 903,0 1650,-260 2243,-779 353,-309 625,-686 812,-1134 166,-398 248,-810 248,-1235 0,-1040 -353,-1856 -1060,-2451 -602,-512 -1354,-770 -2257,-779z"/>
   <circle class="fil1" cx="1307" cy="5000" r="1307"/>
   <circle class="fil1" cx="98613" cy="5000" r="1307"/>
  </g>
 </g>
</svg>
